<svg width="26" height="26" viewBox="0 0 26 26" fill="none" xmlns="http://www.w3.org/2000/svg">
<rect x="1.625" y="1.625" width="22.75" height="22.75" rx="11.375" fill="#6F757B"/>
<path d="M10.2526 7.87487C10.2526 8.63419 9.59442 9.24974 8.78254 9.24974C7.97066 9.24974 7.3125 8.63419 7.3125 7.87487C7.3125 7.11555 7.97066 6.5 8.78254 6.5C9.59442 6.5 10.2526 7.11555 10.2526 7.87487Z" fill="white"/>
<path d="M7.51353 10.2603H10.0264V17.875H7.51353V10.2603Z" fill="white"/>
<path d="M14.0722 10.2603H11.5593V17.875H14.0722C14.0722 17.875 14.0722 15.4778 14.0722 13.9789C14.0722 13.0793 14.3793 12.1757 15.605 12.1757C16.9902 12.1757 16.9819 13.3531 16.9754 14.2651C16.967 15.4574 16.9871 16.674 16.9871 17.875H19.5V13.8561C19.4787 11.29 18.81 10.1076 16.6102 10.1076C15.3038 10.1076 14.494 10.7007 14.0722 11.2373V10.2603Z" fill="white"/>
</svg>
