<svg width="23" height="24" viewBox="0 0 23 24" fill="none" xmlns="http://www.w3.org/2000/svg">
<g clip-path="url(#clip0_5954_8308)">
<path d="M3.27654 7.05308C5.08613 7.05308 6.55308 5.58613 6.55308 3.77654C6.55308 1.96696 5.08613 0.5 3.27654 0.5C1.46696 0.5 0 1.96696 0 3.77654C0 5.58613 1.46696 7.05308 3.27654 7.05308Z" fill="#6F757B"/>
<path d="M11.5001 7.05308C13.3096 7.05308 14.7766 5.58613 14.7766 3.77654C14.7766 1.96696 13.3096 0.5 11.5001 0.5C9.69047 0.5 8.22351 1.96696 8.22351 3.77654C8.22351 5.58613 9.69047 7.05308 11.5001 7.05308Z" fill="#6F757B"/>
<path d="M11.5001 15.2767C13.3096 15.2767 14.7766 13.8098 14.7766 12.0002C14.7766 10.1906 13.3096 8.72363 11.5001 8.72363C9.69047 8.72363 8.22351 10.1906 8.22351 12.0002C8.22351 13.8098 9.69047 15.2767 11.5001 15.2767Z" fill="#6F757B"/>
<path d="M11.5001 23.4999C13.3096 23.4999 14.7766 22.0329 14.7766 20.2233C14.7766 18.4137 13.3096 16.9468 11.5001 16.9468C9.69047 16.9468 8.22351 18.4137 8.22351 20.2233C8.22351 22.0329 9.69047 23.4999 11.5001 23.4999Z" fill="#6F757B"/>
<path d="M19.7238 7.05308C21.5334 7.05308 23.0003 5.58613 23.0003 3.77654C23.0003 1.96696 21.5334 0.5 19.7238 0.5C17.9142 0.5 16.4473 1.96696 16.4473 3.77654C16.4473 5.58613 17.9142 7.05308 19.7238 7.05308Z" fill="#6F757B"/>
</g>
<defs>
<clipPath id="clip0_5954_8308">
<rect width="23" height="23" fill="white" transform="translate(0 0.5)"/>
</clipPath>
</defs>
</svg>
